<svg fill="none" height="75" viewBox="0 0 59 75" width="59" xmlns="http://www.w3.org/2000/svg" xmlns:xlink="http://www.w3.org/1999/xlink"><linearGradient id="a"><stop offset="0" stop-color="#f8e131"/><stop offset="1" stop-color="#a38f3a"/></linearGradient><linearGradient id="b" gradientUnits="userSpaceOnUse" x1="33.0264" x2="35.0598" xlink:href="#a" y1="28.2581" y2="-4.44927"/><linearGradient id="c"><stop offset="0" stop-color="#dfdfde"/><stop offset="1" stop-color="#919090"/></linearGradient><linearGradient id="d" gradientUnits="userSpaceOnUse" x1="12.4201" x2="25.5961" xlink:href="#c" y1="15.6762" y2="53.6916"/><linearGradient id="e" gradientUnits="userSpaceOnUse" x1="29.3619" x2="29.3619" xlink:href="#a" y1="67.0788" y2="76.1399"/><linearGradient id="f" gradientUnits="userSpaceOnUse" x1="26.913" x2="45.067" xlink:href="#c" y1="6.67777" y2="26.7695"/><linearGradient id="g" gradientUnits="userSpaceOnUse" x1="29.2162" x2="29.2162" xlink:href="#a" y1="20.1301" y2="-.871151"/><linearGradient id="h" gradientUnits="userSpaceOnUse" x1="22.113" x2="27.5484" xlink:href="#c" y1="52.1073" y2="65.6959"/><path d="m34 74.7 5.9-34.1-7.8-4.8-5.2 38.9z" fill="url(#b)"/><path d="m32 35.7s8.8 38.9 14.3 38.9c.2 0 6.4 0 6.2 0-4.7 0-9.9-33-9.9-33z" fill="url(#d)"/><path d="m46.2 74.2c15.3 0 5.4-30.1 2.9-37.4-3.3-8.9-8.2-27.4-9.6-36.8.2 1.1 9.6 3.7 10.8 7.9 2 7 6.7 28.7 7.5 35.9 1 9.5 3.6 30.9-5 30.9l-6.6-.1z" fill="url(#e)"/><path d="m6.5 74.2c-1.7-.5-6.2-2.5-6.5-8 0 .3 3.1 2.2 5.6 1.2 4.1 6.4 10.6 3.4 10.6 3.4s-8.1 3.9-9.7 3.4z" fill="url(#f)"/><path d="m10.1 48.2c.1-.3.2-.7.3-1 1.9-4.7 9.7-5 13.3-2.7-2.8-2-6.5-2.1-9.8-1.3-3.6.9-7.19998 3.1-7.99998 6.7-.5 2.3.3 4.8 1.4 6.9 2.3 4.1 7.59998 9.8 4.09998 14.8-1 1.4-3.19998 3-5.19998 2.6 2.59999.8 6.49998 1.3 9.59998-.3 3.2-1.7 4.4-5.8 3.6-9.2-.5-2.1-1.9-4.7-3.3-6.4-2.2-2.8-6.69998-6.2-6-10.1z" fill="url(#g)"/><path d="m25 45.5c.7 1 1.2 2.2 1.6 3.7.7 3.1 2.7 17.5 4.2 21.6.5 1.4 1.3 3.9 3.1 3.9.2 0-5.6 0-6.9 0s-2.1-1.5-2.6-2.5c-.9-2-1.6-4.2-2-6.4-1.1-6.2-1.1-7.2-2.1-12.9-.6-3-2-10.4-6.4-9.7 2-.4 3.8-.6 5.9-.3 2.4.2 4.1 1.1 5.2 2.6z" fill="url(#h)"/></svg>